<?xml version="1.0" standalone="no"?><!DOCTYPE svg PUBLIC "-//W3C//DTD SVG 1.1//EN" "http://www.w3.org/Graphics/SVG/1.1/DTD/svg11.dtd"><svg t="1581151002620" class="icon" viewBox="0 0 1024 1024" version="1.1" xmlns="http://www.w3.org/2000/svg" p-id="1192" xmlns:xlink="http://www.w3.org/1999/xlink" width="200" height="200"><defs><style type="text/css"></style></defs><path d="M670.18436587 892.48904H576.97958827v14.30911147l31.06890133 39.3457216 44.877088 32.19405653 24.16191787 3.57390613 24.16769813-3.57390613 13.80818667-3.5796864h6.9031296l20.71324373 17.8868704 10.3556576 3.57390613h17.26264213l48.329616-14.307184-37.9739584-21.4607776-24.16577066-21.462704-31.06697494-39.3457216-17.26264213-17.884944-37.97395733 10.73135147zM907.97917867 39.75308373l-24.16191787 25.0385376-3.45252907 57.2306656-17.26264106 71.53785067-3.452528 14.307184 34.52142933-21.46077653 24.16769813-42.9215552 3.4506016-57.2306656-6.9031296-42.92348054-6.90698346-3.57776zM547.83732053 666.0440288l58.68334827 17.884944 44.8790144 35.76988907 17.26071467 32.19212906 3.4506016 21.4607776-10.3537312 17.8868704-13.81203947 7.15359254-24.16191893-7.15359254-27.61637334-25.04046293-41.42648533-35.76796267-20.71131733-25.03853653-10.35951147-21.462704v-14.3052576l10.35951147-3.5796864h13.80818666zM478.79446187 666.0440288l-58.68527467 17.884944-44.877088 35.76988907-17.25878827 32.19212906-3.452528 21.4607776 10.3556576 17.8868704 13.80818667 7.15359254 24.16384533-7.15359254 27.61637227-25.04046293 41.42456-35.76796267 20.71324267-25.03853653 10.35565866-21.462704v-14.3052576l-10.35565866-3.5796864h-13.8081856z" fill="#D5EAFF" p-id="1193"></path><path d="M560.6956768 886.01940373c29.40621653 2.28498773 57.18635307 6.56789547 84.8316256 5.8280672 17.8329248-0.4758784 36.187968-6.56404267 52.9400512-13.47102506 11.33246187-4.67979413 15.80995947-3.93226027 22.7207968 6.30972693 12.29192533 18.20861867 25.4970752 36.27851947 40.99299307 51.7243456 24.13301867 24.05402667 54.32337493 36.2920064 89.37848213 36.71201173-30.421552 15.60573653-62.53083627 24.90367253-96.17757333 27.33893867-6.59101547 0.46624533-15.75986667-6.0862368-20.2758976-12.0337568-7.53699307-9.91253227-15.35912747-10.94328213-26.32552854-8.22672747-12.67725227 3.13656-25.69166613 5.59687253-38.6887392 6.4792704-6.59679467 0.4489056-14.093328-2.03837867-20.13332586-5.19420586-40.67317227-21.32013333-67.80981333-55.43311573-89.26288427-95.46664534m247.20256747 95.24700907c-3.9226272-4.79924587-4.72796053-6.75863253-6.12091627-7.34432853-37.7408352-15.9640896-64.6077472-43.83863253-86.70431467-77.5528032-2.583616-3.93611307-12.47110293-6.83377067-16.99869226-5.08824-29.60851307 11.44805973-59.5773056 16.16060693-91.0392416 10.31134506-7.23451093-1.3467168-14.73489707-1.24460587-23.4972288-1.91892693 24.3372416 43.85789867 63.79470827 91.66539733 125.8381056 70.56875307 13.05679893-4.446672 22.19289813-1.1598336 31.4734944 9.26133013 5.0015424 5.60072533 14.89480853 9.76418133 22.42216746 9.51757227 13.94305067-0.43927253 27.76857707-4.58924267 44.62662614-7.75470187m0 0M917.6913408 21.75061547c23.40667733 69.453232 22.87107307 172.05035093-76.65884373 204.11724906 0-1.78598933-0.608816-3.72225707 0.09247893-4.65282133 30.32136747-40.10096213 38.7638784-86.492384 37.6945952-135.2092544-0.28321493-12.89110827 1.9998464-22.0676672 12.43449707-30.98798293 10.06666347-8.60049493 16.93896747-20.97141227 26.43727253-33.2671904m-49.4663296 175.8824256c46.65537173-11.62338347 63.58277867-108.25949653 41.72704107-148.938448-7.72387627 11.0608064-20.36259627 20.87122667-20.55333334 30.91284373-0.74560747 39.7117824-4.77805227 78.42364053-21.17370773 118.02560427m0 0M165.07292587 387.86696533c-3.75693653 10.57144107-8.0629632 22.69767573-12.33431147 34.74877227-31.1825728-6.3771584-53.95346133-30.9956896-64.71178667-70.5860928 12.22064 9.31720213 22.4934528 20.03699413 35.03006187 25.89588907 12.3497248 5.7702688 26.9940704 6.62376853 42.01603627 9.94143146m0 0M727.6154016 171.58109547c12.55780053 22.6726304 5.9744928 55.21540693-15.99106347 80.22697066-1.43534187-8.83939733-4.49291093-15.594176-2.9805024-21.08123093 2.662608-9.66014293 8.9530688-18.26256427 12.16284054-27.83022933 3.11922027-9.2690368 4.27520107-19.1989088 6.80872533-31.3155104m0 0M779.12589013 367.66620693c0-3.88794773 0-7.78360213-0.23119573-11.65998933-1.5316736-26.0191936-26.0731392-49.27752-52.0711392-49.28908053-69.17001707-0.03082667-138.33810773-0.01155947-207.50812587-0.01155947v0.1618368c-69.8173664 0-139.6347328-0.04045973-209.45209813 0.0192672-28.51611093 0.0250464-53.10188907 25.09248213-52.78206827 53.55079467 0.11752427 10.36721813 0.2389024 20.73443627 0.2331232 31.10165333-0.0500928 96.55712107 0.72634133 193.1296544-0.64349653 289.66173013-0.4989984 35.0801536 30.40806613 60.8681504 58.60628267 57.97819947 11.1918176-1.14634773 22.60134507-0.1290848 33.91261333-0.10018453 4.31180693 0.01348693 7.59093867 0.31018773 6.40220587 6.52743573-1.67039147 8.744992-2.69536107 17.65567467-3.29647147 26.5470912-0.66661547 9.81042133 5.03622187 16.87346133 11.12438507 23.86521707 3.1616064 3.6355584 5.2654912 8.3230592 7.25763093 12.8005568 1.15020053 2.57398293 0.37762027 6.1633024 1.839936 8.39819733 1.500848 2.290768 4.604656 4.6065824 7.13239893 4.75685973 1.6549792 0.10018453 5.31173013-3.93418667 5.0304416-5.608432-1.99406613-11.91623147 4.48327787-16.1972128 14.57691307-18.08338773 2.13856427-0.3988128 4.09795093-1.872688 6.09201707-2.93618987 23.67062613-12.6444992 42.57283307-31.14404053 61.42494826-49.79193173 3.12500053-3.09032107 8.07645013-5.9552256 12.26302614-6.07467733a1415.89880853 1415.89880853 0 0 1 68.83093013-0.2389024c4.2636416 0.08669867 9.18619093 2.6048096 12.55202133 5.4754944 12.2707328 10.4558432 23.65906667 21.9636288 36.0550304 32.2653408 12.67532587 10.52712853 26.4430528 19.68442027 42.3551232 24.70908266 12.062656 3.81280853 11.9586176 3.5026208 11.1108992 16.24730454-0.1560576 2.36012693 1.3679104 6.0072448 3.21940587 7.01487466 2.07113173 1.11937493 6.53899627 0.95561067 7.9069056-0.53945706 1.85534827-2.0248928 1.83222933-5.83384853 2.4737984-8.9049024 1.24460587-5.92054613 0.40266667-13.75424107 3.9226272-17.46879147 14.31489173-15.1182976 14.44975573-32.40791253 9.97803733-50.5914848-1.83030187-7.43873387 0.79570027-8.3789312 7.03992107-8.25562773 12.91422827 0.25816853 25.8612096-0.54138453 38.74846507 0.08477226 30.17109013 1.4719488 56.69313493-27.6838048 56.3598272-57.6217728-1.17139307-104.65283733-0.45468587-209.3249408-0.46431894-313.9893376zM412.36026453 776.1261216c-6.75477867 5.15567253-15.0123328 8.81820373-23.11575573 11.5925568-13.12615787 4.49869013-23.48181653-3.09610133-24.7052288-17.01988587-0.16761707-1.9247072-0.02312-3.87638827-0.02312-5.81458133 0.102112-17.410992 9.49830613-30.43889173 20.6747104-42.28576533 13.9873632-14.8254496 31.8164352-24.1773312 50.350656-31.59679894 16.66153173-6.6661536 34.07445013-11.47503253 51.23305387-16.8522688 2.629856-0.82459947 5.7143968-0.64349547 8.52728213-0.33716053 5.5564128 0.6049632 7.25377707 3.97272 4.874384 8.87022293-2.8148128 5.7953152-5.3753088 11.927792-9.28252267 16.94089387-22.67070293 29.08254187-49.30834667 54.21162987-78.5334592 76.5027872z m77.4526176-54.6200768l23.88255574-35.7390624 24.4682528 35.7390624h-48.35080854z m175.50287894 57.40406293c-4.52373653 10.008864-13.12615787 13.326528-23.72649814 9.89711894-16.9582336-5.4812736-30.77412587-15.9583104-43.66908906-27.61444587-16.25501227-14.67902507-32.37901227-29.58731947-47.52428267-45.39728-8.3712256-8.73728533-15.324448-19.08716373-21.6226144-29.4986944-5.23081173-8.64480747-1.49121493-13.43827307 8.87022293-13.9102976 11.78907413 3.17123947 23.72264533 5.87816107 35.33061654 9.613904 19.6497408 6.33284587 38.94498133 13.79277333 56.00147306 25.7090048 16.0084032 11.18411093 29.98613333 24.35072853 36.09163627 43.8521184 2.8456384 9.08022613 4.38116587 18.1970592 0.24853547 27.34857173z m97.84796586-246.75173546c-0.01926613 49.88826347-0.12523093 99.78037973-0.2080768 149.672496-0.03082667 18.042928-7.7469952 31.3964288-24.98459093 37.4768864-6.7990912 2.40443947-14.55957333 2.74352747-21.89426987 2.8148128a795.19702933 795.19702933 0 0 1-47.20446186-0.9768032c-3.72996373-0.1868832-8.215168-1.9709472-10.87006934-4.5545632-31.82028907-30.9706432-71.39142613-45.4820512-113.71572373-53.7819904-9.29215573-1.82452267-19.3838656-2.1848032-27.51040853 5.54099946-1.1328608 1.0808416-5.34062933 0.72056107-6.67578667-0.53175146-7.65066347-7.1670784-17.1701632-6.88001067-25.71285867-4.9264032-39.62893653 9.07444693-78.03060693 21.58986133-106.88387946 52.39866773-8.54462187 9.12453867-18.42825493 6.2153216-27.77243094 6.88771627-12.7755104 0.91322453-25.70900587-0.35835413-38.57506773-0.63000854-22.2834496-0.4758784-37.5000064-15.71748053-37.53468587-37.99322453-0.0770656-53.45446293-0.02312-106.91085227-0.02311893-160.3653152h-0.04624c0-53.44290347 0.48165867-106.89351253-0.2427552-160.32870933-0.27936213-20.6785632 18.0121024-39.39003413 36.2958592-38.80433814 18.37430933 0.58954987 36.78522453 0.06743253 55.17880107 0.00385387 47.42024533-0.16376427 94.842416-0.49514453 142.26266133-0.47780587 59.7295104 0.02119253 119.4590208 0.3198208 179.18853013 0.50670507 12.89303573 0.04045973 25.78799787-0.01733973 38.67910614 0.19266347 22.2834496 0.36413333 38.0028576 16.03344853 38.10304213 38.73497813 0.24275627 56.38101973 0.16761707 112.76204053 0.14642453 169.14113387z m-76.04039466-74.73606294c-15.07205867-13.07028587-32.59479573-21.89041707-51.50663574-27.42563626-10.71015893-3.1346336-22.09464-4.16923627-33.265264-5.33485014-2.5296704-0.2639488-5.41191467 2.85334507-8.136176 4.4177728 2.4217792 1.99792 4.56226987 4.64318827 7.32698987 5.82999467 3.59702613 1.54516053 7.6891968 1.92856107 11.56943787 2.81481173v2.64141547c-2.866832 2.00755307-5.70861653 4.06134507-8.6062752 6.02073173-20.29323733 13.71185493-28.70106773 41.41492693-19.19120214 63.29956267 12.6984448 29.22125973 38.99892693 39.85820587 67.58439787 29.8609024 24.40660053-8.5330624 36.83146347-26.74938773 34.2150944-56.01110613-0.36220693-4.04015147-0.7610208-6.41376533 4.24437547-7.72194987 7.2691904-1.8996608 7.9300256-4.8204384 3.22518506-10.854656-2.1578304-2.7685728-4.7915392-5.22503147-7.45992746-7.53699307z m-91.7578752 19.18156907c0.2639488-4.93218347 6.05155733-10.5097888 11.0068608-10.60226773 6.003392-0.11174507 10.99915413 4.9283296 10.99915413 11.09355946 0 6.57945493-4.31180693 10.76603093-11.07621973 10.75832427-5.53522027-0.00770667-11.2187904-5.86082133-10.9297952-11.249616z m18.18935253 49.87670293c-7.22295147-0.1078912-13.87176533-7.7123168-13.8582784-15.85041813 0.01348693-7.9049792 7.1112064-14.86590827 14.9121472-14.61352 7.04184747 0.22926933 13.7234144 7.4233216 13.76772693 14.827376 0.0520192 8.8490304-6.5023904 15.75408747-14.82159573 15.63656213z m38.17625493-11.92393813c-11.9547648-0.36413333-22.1235392-12.02605013-21.82105813-25.0250496 0.29862827-13.12230507 12.41715627-24.5472448 25.45083627-24.00008107 11.7948544 0.49514453 23.19089493 13.21285653 22.97125866 25.64157334-0.24660907 13.83708587-11.63109013 23.85173013-26.6010368 23.38355733z m-233.96466453-71.54941013c-2.4468256-1.7089248-4.88594453-3.4274816-6.22688107-4.3715328 4.3484128-4.49676373 10.6369472-8.60242133 10.03005654-10.821904-1.7647968-6.47156373-8.41939093-3.22518507-13.23019627-3.47372054-0.3198208-0.01733973-0.64156907 0.055872-0.96331733 0.0809184-23.03483733 1.85149547-42.30888427 12.95083413-60.6831936 25.64157334-6.78753173 4.6875008-12.6194528 11.0376864-18.0410016 17.3608992-5.04585493 5.89164693-3.689504 9.70830933 3.6914304 10.44235733 6.20376213 0.61844907 6.11513707 3.59317227 6.1035776 8.36544533-0.04045973 20.09672 8.82783787 35.37878187 26.211856 45.31443307 16.31088427 9.321056 32.96856213 10.03969067 49.60890133 0.55487147 34.9491424-19.9136896 36.75439893-65.89859307 3.498768-89.0933408z m-66.40915093 31.2846848c-0.80918613-4.96108267 5.6065056-11.50200533 10.69859946-11.46154667 5.17879253 0.03660587 9.93950507 5.09980053 10.110976 10.75639787 0.20037013 6.57752853-3.35041707 10.33446507-9.70060266 10.36143893-6.53899627 0.0269728-10.1167552-3.59509973-11.1089728-9.65629013z m18.25485866 47.62639466c-7.27882347 0.03660587-14.96224-7.7469952-14.83700906-15.0373792 0.14449707-8.2999392 6.5351424-13.935344 15.48050453-13.65405546 8.4502176 0.26780267 13.33423467 5.64696427 13.20707627 14.53452693-0.11945173 8.40783147-5.69898347 14.1125952-13.85057174 14.15690773z m38.83901654-10.9529152c-12.63486613 0.06357867-23.3045664-10.52520213-23.45869654-23.27952-0.1618368-13.3766208 10.2747392-25.19459413 23.04061654-24.85550613 14.41507627 0.38147307 23.58585493 9.68133653 24.53375893 24.8651392 0.66854187 10.70245227-11.9566912 23.92879573-24.11567893 23.26988693z m105.46394986 81.68543254c-21.87500373 0.35257387-36.88155627 9.65050987-48.9885248 23.82283093-2.57398293 3.01325547-2.15012373 8.60434773-3.1057344 13.00477973 3.893728-0.72056107 7.9030528-1.06350187 11.65613654-2.22911573 11.3016352-3.51610773 22.26418347-8.93765547 33.79894186-10.6677728 15.3283008-2.30425387 29.677872 3.21940587 43.02559254 11.07429227 2.3215936 1.365984 5.56219307 1.16561387 8.3789312 1.69351146-0.43349227-3.0055488 0.06550507-6.6372544-1.454608-8.91260906-10.89704213-16.29354453-25.03275627-27.55279467-43.31073494-27.7859168z m131.80296534-33.90105387c-1.40066347 0.947904-4.2116224 0.98836373-5.82806827 0.25238933-12.14935467-5.51402667-16.92740693-4.56226987-25.9941472 6.12091627h42.507328l0.48165867-2.70884693c-2.67994773-3.89180053-5.1922784-7.73350933-11.1667712-3.66445867z m-266.47854187-4.69713387c-2.25223573 0.61844907-4.01510507 3.0305952-6.00146453 4.61621547 2.16938987 0.8727648 4.38309227 2.5778368 6.49853653 2.46416533 6.99368213-0.37954667 13.9546112-1.41222293 20.92709973-2.19636266l0.0577984 0.52211733c0.96139093 0.055872 1.93626773 0.25431573 2.87839147 0.14064427 2.17324373-0.260096 4.33492693-0.6608352 6.49853653-1.00570347-1.94204693-1.40451627-3.88602133-2.81288533-5.82999466-4.2154752-8.24984747-5.9513728-16.73666987-2.6086624-25.02890347-0.32560107z" fill="#577EFF" p-id="1194"></path></svg>