<?xml version="1.0" standalone="no"?><!DOCTYPE svg PUBLIC "-//W3C//DTD SVG 1.1//EN" "http://www.w3.org/Graphics/SVG/1.1/DTD/svg11.dtd"><svg t="1581075390211" class="icon" viewBox="0 0 1064 1024" version="1.1" xmlns="http://www.w3.org/2000/svg" p-id="1068" xmlns:xlink="http://www.w3.org/1999/xlink" width="207.8125" height="200"><defs><style type="text/css"></style></defs><path d="M124.272727 213.272727L18.18181801 519l148.90909099-122.81818199zM378.272727 19.727273l159.272728 102.818182L703.81818201 18.18181801zM703.81818201 18.18181801l69.54545399 180.90909099 193.545455 10.09090899z" p-id="1069"></path><path d="M703.81818201 18.18181801L537.545455 122.545455l96.727272 118.90909 139.090909-42.363636zM118.18181801 828.090909l48.36363699-189.454545L18.18181801 519zM166.636364 638.545455l84.909091-118.909091-84.454546-123.45454599L18.18181801 519z" p-id="1070"></path><path d="M167.090909 396.18181801l84.363636 123.45454599h292.09091L307.727273 348.18181799zM309.727273 199.090909l-2 149.09090899 235.818182 171.45454601-86.636364-278.181819z" p-id="1071"></path><path d="M537.545455 122.545455l-80.636364 118.90909 86.636364 278.181819 90.90909-278.181819z" p-id="1072"></path><path d="M773.363636 199.090909l-139.090909 42.363636-90.909091 278.181819L777.272727 350.363636zM543.545455 519.636364L777.272727 350.363636l143.090909 54.545455-84.636363 114.90909101zM920.545455 404.727273l-84.636364 114.909091 80.636364 125L1063.636364 519.636364z" p-id="1073"></path><path d="M916.454545 644.636364L1063.636364 519.636364l-104.545455 316.454545z" p-id="1074"></path><path d="M779.363636 695l137.090909-50.363636 42.636364 191.454545-187.454545 6.09090899zM543.545455 519.636364l235.818181 175.363636 137.090909-50.363636-80.63636301-125zM779.363636 695l-8.090909 147.18181799-137.09090901-42.36363598-90.90909099-280.18181801z" p-id="1075"></path><path d="M543.545455 519.636364l-86.636364 284.272727 86.636364 114.90909099 90.90909-118.90909099z" p-id="1076"></path><path d="M634.272727 799.81818199l-90.909091 118.90909101 159.272728 104.818182 68.54545401-181.818182zM771.363636 842.18181801l-68.54545401 181.81818199 256.27272701-187.909091zM773.363636 199.090909l3.909091 151.272727 143.090909 54.545455 46.363637-195.545455zM966.909091 209.18181801l-46.363636 195.54545499L1063.636364 519.636364zM124.272727 213.272727l42.818182 182.90909099 140.636364-48 2-149.18181799zM378.272727 19.727273L309.727273 199.090909l147.181818 42.363636 80.636364-118.90909z" p-id="1077"></path><path d="M378.272727 19.727273L309.727273 199.090909l-185.454546 14.09090899zM543.545455 918.81818199l-167.272728 98.81818201 326.54545499 6.090909zM543.545455 918.81818199l-86.636364-114.90909099-151.181818 42.363636 70.545454 171.363637z" p-id="1078"></path><path d="M305.727273 846.18181801l70.545454 171.36363699L118.18181801 828.090909z" p-id="1079"></path><path d="M166.636364 638.545455L118.18181801 828.090909l187.45454599 18.181818-2-155.181818z" p-id="1080"></path><path d="M303.636364 691.727273l2 154.545454 151.18181799-42.363636 86.63636301-284.272727z" p-id="1081"></path><path d="M543.545455 519.636364H251.272727l-84.636363 118.909091 137.090909 53.090909z" p-id="1082"></path><path d="M106.090909 195.090909L0 500.81818199l148.909091-122.81818199zM360.090909 1.545455l159.272727 102.818181L685.636364 0z" fill="#EF91B4" p-id="1083"></path><path d="M685.636364 0l69.54545401 180.909091 193.54545499 10.090909z" fill="#E96081" p-id="1084"></path><path d="M685.636364 0L519.363636 104.363636l96.727273 118.909091 139.09090901-42.363636z" fill="#EC7A9A" p-id="1085"></path><path d="M100 809.909091l48.363636-189.454546L0 500.81818199z" fill="#E96081" p-id="1086"></path><path d="M148.454545 620.363636l84.909091-118.909091-84.454545-123.454545L0 500.81818199z" fill="#EC7A9A" p-id="1087"></path><path d="M148.909091 378l84.363636 123.454545h292.090909L289.545455 330z" fill="#ED85A0" p-id="1088"></path><path d="M291.545455 180.909091l-2 149.090909 235.818181 171.454545-86.636363-278.181818z" fill="#F2A8C2" p-id="1089"></path><path d="M519.363636 104.363636l-80.636363 118.909091 86.636363 278.181818 90.909091-278.181818z" fill="#ED85A0" p-id="1090"></path><path d="M755.18181799 180.909091l-139.09090899 42.363636-90.90909101 278.181818L759.090909 332.18181799z" fill="#E96081" p-id="1091"></path><path d="M525.363636 501.454545L759.090909 332.18181799l143.09090901 54.54545501-84.63636301 114.909091z" fill="#E63462" p-id="1092"></path><path d="M902.363636 386.545455l-84.636363 114.90909 80.636363 125L1045.454545 501.454545z" fill="#CF215A" p-id="1093"></path><path d="M898.272727 626.454545L1045.454545 501.454545l-104.545454 316.454546z" fill="#BD0E52" p-id="1094"></path><path d="M761.18181799 676.81818201l137.09090901-50.36363701 42.636364 191.454546-187.454546 6.090909z" fill="#B71253" p-id="1095"></path><path d="M525.363636 501.454545l235.81818201 175.36363701 137.09090899-50.36363701-80.636363-125z" fill="#D60050" p-id="1096"></path><path d="M761.18181799 676.81818201l-8.09090899 147.18181799-137.090909-42.363636-90.909091-280.181819z" fill="#C30951" p-id="1097"></path><path d="M525.363636 501.454545l-86.636363 284.272728 86.636363 114.909091 90.909091-118.909091z" fill="#D60050" p-id="1098"></path><path d="M616.090909 781.636364l-90.90909101 118.909091 159.27272701 104.818181 68.545455-181.818181z" fill="#B71253" p-id="1099"></path><path d="M753.18181799 824l-68.54545399 181.81818201 256.272727-187.90909101z" fill="#A51955" p-id="1100"></path><path d="M755.18181799 180.909091l3.90909101 151.27272701 143.09090901 54.54545499 46.36363699-195.54545499z" fill="#E7456D" p-id="1101"></path><path d="M948.727273 191l-46.363637 195.545455L1045.454545 501.454545z" fill="#D83563" p-id="1102"></path><path d="M106.090909 195.090909l42.818182 182.909091 140.636364-48 2-149.18181801zM360.090909 1.545455L291.545455 180.909091l147.181818 42.363636 80.636363-118.909091z" fill="#F5BED6" p-id="1103"></path><path d="M360.090909 1.545455L291.545455 180.909091l-185.454546 14.090909z" fill="#F9DCE8" p-id="1104"></path><path d="M525.363636 900.636364l-167.272727 98.818181 326.545455 6.09091z" fill="#BC0E52" p-id="1105"></path><path d="M525.363636 900.636364l-86.636363-114.909091-151.181818 42.363636 70.545454 171.363636z" fill="#CF215A" p-id="1106"></path><path d="M287.545455 828l70.545454 171.363636L100 809.909091z" fill="#D83563" p-id="1107"></path><path d="M148.454545 620.363636L100 809.909091l187.454545 18.181818-2-155.181818z" fill="#E7456D" p-id="1108"></path><path d="M285.454545 673.545455l2 154.545454 151.181819-42.363636 86.636363-284.272728z" fill="#E63462" p-id="1109"></path><path d="M525.363636 501.454545H233.090909l-84.636364 118.909091 137.09091 53.090909z" fill="#E96081" p-id="1110"></path></svg>